<svg xmlns="http://www.w3.org/2000/svg">
  <defs>

    <symbol id="icon-barbell" viewBox="-5.0 -10.0 110.0 135.0">
      <g data-name="Layer 14"><path d="M95,39.24H87.97V35a1,1,0,0,0-1-1H78.95a1,1,0,0,0-1,1V45.5H22.05V35a1,1,0,0,0-1-1H13.03a1,1,0,0,0-1,1v4.24H5a1,1,0,0,0-1,1V59.76a1,1,0,0,0,1,1h7.03V65a1,1,0,0,0,1,1h8.02a1,1,0,0,0,1-1V54.5h55.9V65a1,1,0,0,0,1,1h8.02a1,1,0,0,0,1-1V60.76H95a1,1,0,0,0,1-1V40.24A1,1,0,0,0,95,39.24ZM6,58.76V41.24h6.03V58.76ZM20.05,64H14.03V36h6.02V64Zm2-11.5v-5h55.9v5ZM85.97,64H79.95V36h6.02V64ZM94,58.76H87.97V41.24H94Z"/></g>
    </symbol>

    <symbol id="icon-bench" viewBox="-5.0 -10.0 110.0 135.0">
      <g data-name="Layer 88"><path d="M95,23.12H91.572V21.293a3.277,3.277,0,0,0-4.555-3.018v-.943a3.277,3.277,0,1,0-6.554,0V23.12H77.47V17.59a3.845,3.845,0,0,0-7.689,0v5.53H30.22V17.59a3.845,3.845,0,0,0-7.689,0v5.53H19.536V17.333a3.277,3.277,0,1,0-6.554,0v.943a3.277,3.277,0,0,0-4.555,3.018V23.12H5a1,1,0,0,0-1,1v4.57a1,1,0,0,0,1,1H8.428v1.822a3.277,3.277,0,0,0,4.555,3.017v.943a3.277,3.277,0,1,0,6.554,0V29.69H22.53V79.125h-.94a1,1,0,0,0-.83.442L17.32,84.692a1,1,0,0,0,.83,1.558H34.6a1,1,0,0,0,.83-1.558L31.99,79.567a1,1,0,0,0-.83-.442h-.94V29.69H69.78V79.125h-.94a1,1,0,0,0-.83.442L64.57,84.692a1,1,0,0,0,.83,1.558H81.85a1,1,0,0,0,.83-1.558L79.24,79.567a1,1,0,0,0-.83-.442h-.94V29.69h2.994v5.783a3.277,3.277,0,1,0,6.554,0V34.53a3.277,3.277,0,0,0,4.555-3.017V29.69H95a1,1,0,0,0,1-1V24.12A1,1,0,0,0,95,23.12ZM79.975,84.25h-12.7l2.1-3.125h8.5ZM71.78,17.59a1.845,1.845,0,0,1,3.689,0v5.53H71.78Zm-47.25,0a1.845,1.845,0,0,1,3.689,0v5.53H24.53ZM6,27.69V25.12H8.428v2.57Zm5.705,5.1a1.279,1.279,0,0,1-1.277-1.277V28.7l0-.01,0-.01V24.13l0-.01,0-.01V21.293a1.277,1.277,0,0,1,2.555,0V31.512A1.279,1.279,0,0,1,11.705,32.789Zm5.831,2.684a1.277,1.277,0,1,1-2.554,0V17.333a1.277,1.277,0,1,1,2.554,0ZM32.725,84.25h-12.7l2.1-3.125h1.383c.009,0,.016,0,.024,0H29.22c.009,0,.016,0,.024,0h1.383Zm-4.5-5.125H24.53V29.69H28.22Zm47.25,0H71.78V29.69H75.47ZM19.536,27.69V25.12H80.464v2.57Zm65.481,7.783a1.277,1.277,0,1,1-2.554,0V17.333a1.277,1.277,0,1,1,2.554,0V35.473Zm3.277-2.684a1.279,1.279,0,0,1-1.277-1.277V21.293a1.277,1.277,0,0,1,2.555,0V24.11l0,.01,0,.01v4.55l0,.01,0,.01v2.813A1.279,1.279,0,0,1,88.295,32.789ZM94,27.69H91.572V25.12H94Z"/><path d="M73.625,59.625a1,1,0,0,0,1-1v-.187a1,1,0,0,0-2,0v.188A1,1,0,0,0,73.625,59.625Z"/><path d="M73.625,52.188a1,1,0,0,0,1-1V51a1,1,0,0,0-2,0v.188A1,1,0,0,0,73.625,52.188Z"/><path d="M73.625,45.063a1,1,0,0,0,1-1v-.187a1,1,0,0,0-2,0v.188A1,1,0,0,0,73.625,45.063Z"/><path d="M73.625,37.625a1,1,0,0,0,1-1v-.187a1,1,0,0,0-2,0v.188A1,1,0,0,0,73.625,37.625Z"/><path d="M26.375,59.625a1,1,0,0,0,1-1v-.187a1,1,0,0,0-2,0v.188A1,1,0,0,0,26.375,59.625Z"/><path d="M26.375,52.188a1,1,0,0,0,1-1V51a1,1,0,0,0-2,0v.188A1,1,0,0,0,26.375,52.188Z"/><path d="M26.375,45.063a1,1,0,0,0,1-1v-.187a1,1,0,0,0-2,0v.188A1,1,0,0,0,26.375,45.063Z"/><path d="M26.375,37.625a1,1,0,0,0,1-1v-.187a1,1,0,0,0-2,0v.188A1,1,0,0,0,26.375,37.625Z"/><path d="M64.833,66.213a1,1,0,0,0,1-1V62.8a5.791,5.791,0,0,0-5.785-5.784h-20.1A5.791,5.791,0,0,0,34.167,62.8v2.415a1,1,0,0,0,1,1H40V85.25a1,1,0,0,0,1,1h5.333a1,1,0,0,0,1-1V77.875h4.834V85.25a1,1,0,0,0,1,1H58.5a1,1,0,0,0,1-1V66.213ZM36.167,62.8a3.789,3.789,0,0,1,3.785-3.784h20.1A3.789,3.789,0,0,1,63.833,62.8v1.415H36.167Zm16,8.952H47.333V66.213h4.834Zm-6.834,12.5H42V66.213h3.333V84.25Zm2-8.375V73.75h4.834v2.125ZM57.5,84.25H54.167V66.213H57.5Z"/></g>
    </symbol>

    <symbol id="icon-rack" viewBox="-5.0 -10.0 110.0 135.0">
      <g data-name="Layer 33"><path d="M83.741,29a3.281,3.281,0,0,0,3.277-3.277V24.78a3.276,3.276,0,0,0,4.554-3.018V19.94H95a1,1,0,0,0,1-1V14.37a1,1,0,0,0-1-1H91.572V11.543a3.277,3.277,0,0,0-4.554-3.017V7.582a3.277,3.277,0,0,0-6.554,0V13.37H77.47V5a1,1,0,0,0-1-1H70.78a1,1,0,0,0-1,1v8.37H30.22V5a1,1,0,0,0-1-1H23.53a1,1,0,0,0-1,1v8.37H19.536V7.582a3.277,3.277,0,0,0-6.554,0v.944a3.276,3.276,0,0,0-4.554,3.017V13.37H5a1,1,0,0,0-1,1v4.57a1,1,0,0,0,1,1H8.428v1.821A3.281,3.281,0,0,0,11.7,25.039h0a3.258,3.258,0,0,0,1.277-.259v.943A3.281,3.281,0,0,0,16.259,29h0a3.281,3.281,0,0,0,3.277-3.277V19.94H22.53V84h-.94a1,1,0,0,0-.773.365l-3.14,3.825H5a1,1,0,0,0-1,1V93.5a1,1,0,0,0,1,1H95a1,1,0,0,0,1-1V89.19a1,1,0,0,0-1-1H82.323l-3.14-3.825A1,1,0,0,0,78.41,84h-.94V19.94h2.994v5.782A3.281,3.281,0,0,0,83.741,29ZM94,15.37v2.57H91.572V15.37Zm-5.7-5.1a1.278,1.278,0,0,1,1.277,1.276v2.815l0,.012,0,.012v4.546l0,.012,0,.012v2.809A1.279,1.279,0,0,1,88.3,23.039h0a1.279,1.279,0,0,1-1.277-1.277V11.543A1.278,1.278,0,0,1,88.3,10.267ZM82.464,7.582a1.277,1.277,0,0,1,2.554,0V25.723A1.279,1.279,0,0,1,83.741,27h0a1.279,1.279,0,0,1-1.277-1.277ZM71.78,6H75.47v7.37H71.78ZM24.53,6H28.22v7.37H24.53ZM6,17.94V15.37H8.428v2.57Zm5.7,5.1a1.279,1.279,0,0,1-1.277-1.277V18.953l0-.012,0-.012V14.382l0-.012,0-.012V11.543a1.277,1.277,0,0,1,2.554,0V21.762A1.279,1.279,0,0,1,11.7,23.039Zm5.832,2.684a1.277,1.277,0,1,1-2.554,0V7.582a1.277,1.277,0,0,1,2.554,0ZM24.53,19.94H28.22V84H24.53Zm45.25,0V84h-.94a1,1,0,0,0-.773.365l-3.14,3.825H35.073l-3.14-3.825A1,1,0,0,0,31.16,84h-.94V19.94Zm11.3,69.885a1,1,0,0,0,.773.365H94V92.5H6V90.19H18.15a1,1,0,0,0,.773-.365L22.062,86h8.625l3.14,3.825a1,1,0,0,0,.773.365H65.4a1,1,0,0,0,.773-.365L69.312,86h8.625ZM75.47,84H71.78V19.94H75.47Zm1-66.06H19.536V15.37H80.464v2.57Z"/><path d="M73.625,59.375a1,1,0,0,0,1-1v-.187a1,1,0,0,0-2,0v.188A1,1,0,0,0,73.625,59.375Z"/><path d="M73.625,51.938a1,1,0,0,0,1-1V50.75a1,1,0,0,0-2,0v.188A1,1,0,0,0,73.625,51.938Z"/><path d="M73.625,44.813a1,1,0,0,0,1-1v-.187a1,1,0,0,0-2,0v.188A1,1,0,0,0,73.625,44.813Z"/><path d="M73.625,37.375a1,1,0,0,0,1-1v-.187a1,1,0,0,0-2,0v.188A1,1,0,0,0,73.625,37.375Z"/><path d="M26.375,57.188a1,1,0,0,0-1,1v.188a1,1,0,0,0,2,0v-.187A1,1,0,0,0,26.375,57.188Z"/><path d="M26.375,49.75a1,1,0,0,0-1,1v.188a1,1,0,0,0,2,0V50.75A1,1,0,0,0,26.375,49.75Z"/><path d="M26.375,42.625a1,1,0,0,0-1,1v.188a1,1,0,0,0,2,0v-.187A1,1,0,0,0,26.375,42.625Z"/><path d="M26.375,35.188a1,1,0,0,0-1,1v.188a1,1,0,0,0,2,0v-.187A1,1,0,0,0,26.375,35.188Z"/><path d="M73.625,29.094a1,1,0,0,0,1-1v-.187a1,1,0,0,0-2,0v.188A1,1,0,0,0,73.625,29.094Z"/><path d="M26.375,26.906a1,1,0,0,0-1,1v.188a1,1,0,0,0,2,0v-.187A1,1,0,0,0,26.375,26.906Z"/></g>
    </symbol>

  </defs>
</svg>
