<svg xmlns="http://www.w3.org/2000/svg" viewBox="-5.0 -10.0 110.0 135.0" x="0px" y="0px"><title>gym line</title><g data-name="Layer 14"><path d="M95,39.24H87.97V35a1,1,0,0,0-1-1H78.95a1,1,0,0,0-1,1V45.5H22.05V35a1,1,0,0,0-1-1H13.03a1,1,0,0,0-1,1v4.24H5a1,1,0,0,0-1,1V59.76a1,1,0,0,0,1,1h7.03V65a1,1,0,0,0,1,1h8.02a1,1,0,0,0,1-1V54.5h55.9V65a1,1,0,0,0,1,1h8.02a1,1,0,0,0,1-1V60.76H95a1,1,0,0,0,1-1V40.24A1,1,0,0,0,95,39.24ZM6,58.76V41.24h6.03V58.76ZM20.05,64H14.03V36h6.02V64Zm2-11.5v-5h55.9v5ZM85.97,64H79.95V36h6.02V64ZM94,58.76H87.97V41.24H94Z"/></g><text x="0.0" y="117.5" font-size="5.0" font-weight="bold" font-family="Arbeit Regular, Helvetica, Arial-Unicode, Arial, Sans-serif" fill="#000000">Created by Fahrul Oktaviana</text><text x="0.0" y="122.5" font-size="5.0" font-weight="bold" font-family="Arbeit Regular, Helvetica, Arial-Unicode, Arial, Sans-serif" fill="#000000">from Noun Project</text></svg>