<svg xmlns="http://www.w3.org/2000/svg" viewBox="-5.0 -10.0 110.0 135.0" x="0px" y="0px"><title>gym line</title><g data-name="Layer 88"><path d="M95,23.12H91.572V21.293a3.277,3.277,0,0,0-4.555-3.018v-.943a3.277,3.277,0,1,0-6.554,0V23.12H77.47V17.59a3.845,3.845,0,0,0-7.689,0v5.53H30.22V17.59a3.845,3.845,0,0,0-7.689,0v5.53H19.536V17.333a3.277,3.277,0,1,0-6.554,0v.943a3.277,3.277,0,0,0-4.555,3.018V23.12H5a1,1,0,0,0-1,1v4.57a1,1,0,0,0,1,1H8.428v1.822a3.277,3.277,0,0,0,4.555,3.017v.943a3.277,3.277,0,1,0,6.554,0V29.69H22.53V79.125h-.94a1,1,0,0,0-.83.442L17.32,84.692a1,1,0,0,0,.83,1.558H34.6a1,1,0,0,0,.83-1.558L31.99,79.567a1,1,0,0,0-.83-.442h-.94V29.69H69.78V79.125h-.94a1,1,0,0,0-.83.442L64.57,84.692a1,1,0,0,0,.83,1.558H81.85a1,1,0,0,0,.83-1.558L79.24,79.567a1,1,0,0,0-.83-.442h-.94V29.69h2.994v5.783a3.277,3.277,0,1,0,6.554,0V34.53a3.277,3.277,0,0,0,4.555-3.017V29.69H95a1,1,0,0,0,1-1V24.12A1,1,0,0,0,95,23.12ZM79.975,84.25h-12.7l2.1-3.125h8.5ZM71.78,17.59a1.845,1.845,0,0,1,3.689,0v5.53H71.78Zm-47.25,0a1.845,1.845,0,0,1,3.689,0v5.53H24.53ZM6,27.69V25.12H8.428v2.57Zm5.705,5.1a1.279,1.279,0,0,1-1.277-1.277V28.7l0-.01,0-.01V24.13l0-.01,0-.01V21.293a1.277,1.277,0,0,1,2.555,0V31.512A1.279,1.279,0,0,1,11.705,32.789Zm5.831,2.684a1.277,1.277,0,1,1-2.554,0V17.333a1.277,1.277,0,1,1,2.554,0ZM32.725,84.25h-12.7l2.1-3.125h1.383c.009,0,.016,0,.024,0H29.22c.009,0,.016,0,.024,0h1.383Zm-4.5-5.125H24.53V29.69H28.22Zm47.25,0H71.78V29.69H75.47ZM19.536,27.69V25.12H80.464v2.57Zm65.481,7.783a1.277,1.277,0,1,1-2.554,0V17.333a1.277,1.277,0,1,1,2.554,0V35.473Zm3.277-2.684a1.279,1.279,0,0,1-1.277-1.277V21.293a1.277,1.277,0,0,1,2.555,0V24.11l0,.01,0,.01v4.55l0,.01,0,.01v2.813A1.279,1.279,0,0,1,88.295,32.789ZM94,27.69H91.572V25.12H94Z"/><path d="M73.625,59.625a1,1,0,0,0,1-1v-.187a1,1,0,0,0-2,0v.188A1,1,0,0,0,73.625,59.625Z"/><path d="M73.625,52.188a1,1,0,0,0,1-1V51a1,1,0,0,0-2,0v.188A1,1,0,0,0,73.625,52.188Z"/><path d="M73.625,45.063a1,1,0,0,0,1-1v-.187a1,1,0,0,0-2,0v.188A1,1,0,0,0,73.625,45.063Z"/><path d="M73.625,37.625a1,1,0,0,0,1-1v-.187a1,1,0,0,0-2,0v.188A1,1,0,0,0,73.625,37.625Z"/><path d="M26.375,59.625a1,1,0,0,0,1-1v-.187a1,1,0,0,0-2,0v.188A1,1,0,0,0,26.375,59.625Z"/><path d="M26.375,52.188a1,1,0,0,0,1-1V51a1,1,0,0,0-2,0v.188A1,1,0,0,0,26.375,52.188Z"/><path d="M26.375,45.063a1,1,0,0,0,1-1v-.187a1,1,0,0,0-2,0v.188A1,1,0,0,0,26.375,45.063Z"/><path d="M26.375,37.625a1,1,0,0,0,1-1v-.187a1,1,0,0,0-2,0v.188A1,1,0,0,0,26.375,37.625Z"/><path d="M64.833,66.213a1,1,0,0,0,1-1V62.8a5.791,5.791,0,0,0-5.785-5.784h-20.1A5.791,5.791,0,0,0,34.167,62.8v2.415a1,1,0,0,0,1,1H40V85.25a1,1,0,0,0,1,1h5.333a1,1,0,0,0,1-1V77.875h4.834V85.25a1,1,0,0,0,1,1H58.5a1,1,0,0,0,1-1V66.213ZM36.167,62.8a3.789,3.789,0,0,1,3.785-3.784h20.1A3.789,3.789,0,0,1,63.833,62.8v1.415H36.167Zm16,8.952H47.333V66.213h4.834Zm-6.834,12.5H42V66.213h3.333V84.25Zm2-8.375V73.75h4.834v2.125ZM57.5,84.25H54.167V66.213H57.5Z"/></g><text x="0.0" y="117.5" font-size="5.0" font-weight="bold" font-family="Arbeit Regular, Helvetica, Arial-Unicode, Arial, Sans-serif" fill="#000000">Created by Fahrul Oktaviana</text><text x="0.0" y="122.5" font-size="5.0" font-weight="bold" font-family="Arbeit Regular, Helvetica, Arial-Unicode, Arial, Sans-serif" fill="#000000">from Noun Project</text></svg>