<svg xmlns="http://www.w3.org/2000/svg" viewBox="-5.0 -10.0 110.0 135.0" x="0px" y="0px"><title>gym line</title><g data-name="Layer 33"><path d="M83.741,29a3.281,3.281,0,0,0,3.277-3.277V24.78a3.276,3.276,0,0,0,4.554-3.018V19.94H95a1,1,0,0,0,1-1V14.37a1,1,0,0,0-1-1H91.572V11.543a3.277,3.277,0,0,0-4.554-3.017V7.582a3.277,3.277,0,0,0-6.554,0V13.37H77.47V5a1,1,0,0,0-1-1H70.78a1,1,0,0,0-1,1v8.37H30.22V5a1,1,0,0,0-1-1H23.53a1,1,0,0,0-1,1v8.37H19.536V7.582a3.277,3.277,0,0,0-6.554,0v.944a3.276,3.276,0,0,0-4.554,3.017V13.37H5a1,1,0,0,0-1,1v4.57a1,1,0,0,0,1,1H8.428v1.821A3.281,3.281,0,0,0,11.7,25.039h0a3.258,3.258,0,0,0,1.277-.259v.943A3.281,3.281,0,0,0,16.259,29h0a3.281,3.281,0,0,0,3.277-3.277V19.94H22.53V84h-.94a1,1,0,0,0-.773.365l-3.14,3.825H5a1,1,0,0,0-1,1V93.5a1,1,0,0,0,1,1H95a1,1,0,0,0,1-1V89.19a1,1,0,0,0-1-1H82.323l-3.14-3.825A1,1,0,0,0,78.41,84h-.94V19.94h2.994v5.782A3.281,3.281,0,0,0,83.741,29ZM94,15.37v2.57H91.572V15.37Zm-5.7-5.1a1.278,1.278,0,0,1,1.277,1.276v2.815l0,.012,0,.012v4.546l0,.012,0,.012v2.809A1.279,1.279,0,0,1,88.3,23.039h0a1.279,1.279,0,0,1-1.277-1.277V11.543A1.278,1.278,0,0,1,88.3,10.267ZM82.464,7.582a1.277,1.277,0,0,1,2.554,0V25.723A1.279,1.279,0,0,1,83.741,27h0a1.279,1.279,0,0,1-1.277-1.277ZM71.78,6H75.47v7.37H71.78ZM24.53,6H28.22v7.37H24.53ZM6,17.94V15.37H8.428v2.57Zm5.7,5.1a1.279,1.279,0,0,1-1.277-1.277V18.953l0-.012,0-.012V14.382l0-.012,0-.012V11.543a1.277,1.277,0,0,1,2.554,0V21.762A1.279,1.279,0,0,1,11.7,23.039Zm5.832,2.684a1.277,1.277,0,1,1-2.554,0V7.582a1.277,1.277,0,0,1,2.554,0ZM24.53,19.94H28.22V84H24.53Zm45.25,0V84h-.94a1,1,0,0,0-.773.365l-3.14,3.825H35.073l-3.14-3.825A1,1,0,0,0,31.16,84h-.94V19.94Zm11.3,69.885a1,1,0,0,0,.773.365H94V92.5H6V90.19H18.15a1,1,0,0,0,.773-.365L22.062,86h8.625l3.14,3.825a1,1,0,0,0,.773.365H65.4a1,1,0,0,0,.773-.365L69.312,86h8.625ZM75.47,84H71.78V19.94H75.47Zm1-66.06H19.536V15.37H80.464v2.57Z"/><path d="M73.625,59.375a1,1,0,0,0,1-1v-.187a1,1,0,0,0-2,0v.188A1,1,0,0,0,73.625,59.375Z"/><path d="M73.625,51.938a1,1,0,0,0,1-1V50.75a1,1,0,0,0-2,0v.188A1,1,0,0,0,73.625,51.938Z"/><path d="M73.625,44.813a1,1,0,0,0,1-1v-.187a1,1,0,0,0-2,0v.188A1,1,0,0,0,73.625,44.813Z"/><path d="M73.625,37.375a1,1,0,0,0,1-1v-.187a1,1,0,0,0-2,0v.188A1,1,0,0,0,73.625,37.375Z"/><path d="M26.375,57.188a1,1,0,0,0-1,1v.188a1,1,0,0,0,2,0v-.187A1,1,0,0,0,26.375,57.188Z"/><path d="M26.375,49.75a1,1,0,0,0-1,1v.188a1,1,0,0,0,2,0V50.75A1,1,0,0,0,26.375,49.75Z"/><path d="M26.375,42.625a1,1,0,0,0-1,1v.188a1,1,0,0,0,2,0v-.187A1,1,0,0,0,26.375,42.625Z"/><path d="M26.375,35.188a1,1,0,0,0-1,1v.188a1,1,0,0,0,2,0v-.187A1,1,0,0,0,26.375,35.188Z"/><path d="M73.625,29.094a1,1,0,0,0,1-1v-.187a1,1,0,0,0-2,0v.188A1,1,0,0,0,73.625,29.094Z"/><path d="M26.375,26.906a1,1,0,0,0-1,1v.188a1,1,0,0,0,2,0v-.187A1,1,0,0,0,26.375,26.906Z"/></g><text x="0.0" y="117.5" font-size="5.0" font-weight="bold" font-family="Arbeit Regular, Helvetica, Arial-Unicode, Arial, Sans-serif" fill="#000000">Created by Fahrul Oktaviana</text><text x="0.0" y="122.5" font-size="5.0" font-weight="bold" font-family="Arbeit Regular, Helvetica, Arial-Unicode, Arial, Sans-serif" fill="#000000">from Noun Project</text></svg>